<svg xmlns="http://www.w3.org/2000/svg" height="24" width="24" viewBox="0 0 24 24"><title>24 face uwu</title><rect data-element="frame" x="0" y="0" width="24" height="24" rx="5" ry="5" stroke="none" fill="#ffffff00"></rect><g transform="translate(2.3999999999999995 2.3999999999999995) scale(0.8)" fill="#d92845" class="nc-icon-wrapper"> <path fill-rule="evenodd" clip-rule="evenodd" d="M1 18C1 19.6569 2.34315 21 4 21H20C21.6569 21 23 19.6569 23 18V7.00001C23 5.34316 21.6569 4.00001 20 4.00001H16V0.053894L7.77259 4.00001H4C2.34315 4.00001 1 5.34316 1 7.00001V18ZM7.50568 10.6565C7.55104 10.2868 7.86778 10 8.25001 10C8.63223 10 8.94898 10.2868 8.99433 10.6565L9.11612 11.649L11.1012 11.4054L10.9794 10.4129C10.8125 9.0527 9.65497 8 8.25001 8C6.84505 8 5.68747 9.0527 5.52057 10.4129L5.39878 11.4054L7.38389 11.649L7.50568 10.6565ZM15.7369 10C15.3547 10 15.0379 10.2868 14.9926 10.6565L14.8708 11.649L12.8857 11.4054L13.0074 10.4129C13.1743 9.0527 14.3319 8 15.7369 8C17.1418 8 18.2994 9.0527 18.4663 10.4129L18.5881 11.4054L16.603 11.649L16.4812 10.6565C16.4359 10.2868 16.1191 10 15.7369 10ZM9 14V13H7V14C7 14.5166 7.13327 15.0195 7.38067 15.4626C7.51436 15.702 7.68139 15.924 7.87868 16.1213C8.44129 16.6839 9.20435 17 10 17C10.7398 17 11.4515 16.7267 12 16.2361C12.5485 16.7267 13.2602 17 14 17C14.7956 17 15.5587 16.6839 16.1213 16.1213C16.3186 15.924 16.4856 15.702 16.6193 15.4626C16.8667 15.0195 17 14.5166 17 14V13H15V14C15 14.1722 14.9556 14.3398 14.8731 14.4876C14.8286 14.5673 14.7729 14.6413 14.7071 14.7071C14.5196 14.8946 14.2652 15 14 15C13.7348 15 13.4804 14.8946 13.2929 14.7071C13.1054 14.5196 13 14.2652 13 14H11C11 14.2652 10.8946 14.5196 10.7071 14.7071C10.5196 14.8946 10.2652 15 10 15C9.73478 15 9.48043 14.8946 9.29289 14.7071C9.22708 14.6413 9.17145 14.5673 9.12691 14.4876C9.04438 14.3398 9 14.1722 9 14Z" fill="#d92845"></path> </g></svg>