<svg xmlns="http://www.w3.org/2000/svg" height="24" width="24" viewBox="0 0 24 24"><title>24 hourglass</title><rect data-element="frame" x="0" y="0" width="24" height="24" rx="5" ry="5" stroke="none" fill="#ffffff00"></rect><g transform="translate(2.3999999999999995 2.3999999999999995) scale(0.8)" fill="#d92845" class="nc-icon-wrapper"><path d="m12,16c-3.314,0-6,2.686-6,6h12c0-3.314-2.686-6-6-6Z" stroke-width="0" fill="#d92845"></path><path d="m19,22h-2v-5c0-1.678-.837-3.236-2.239-4.167l-1.254-.833,1.254-.833c1.402-.931,2.239-2.489,2.239-4.167V2h2v5c0,1.903-.769,3.695-2.103,5,1.334,1.305,2.103,3.097,2.103,5v5Z" stroke-width="0" fill="#d92845"></path><path d="m7,22h-2v-5c0-1.903.769-3.695,2.103-5-1.334-1.305-2.103-3.097-2.103-5V2h2v5c0,1.678.837,3.236,2.239,4.167l1.254.833-1.254.833c-1.402.931-2.239,2.489-2.239,4.167v5Z" stroke-width="0" fill="#d92845"></path><rect x="3" y="1" width="18" height="2" fill="#d92845" stroke-width="0" data-color="color-2"></rect><rect x="3" y="21" width="18" height="2" fill="#d92845" stroke-width="0" data-color="color-2"></rect></g></svg>