<svg xmlns="http://www.w3.org/2000/svg" height="24" width="24" viewBox="0 0 24 24"><title>24 sparkle</title><rect data-element="frame" x="0" y="0" width="24" height="24" rx="5" ry="5" stroke="none" fill="#ffffff00"></rect><g transform="translate(2.3999999999999995 2.3999999999999995) scale(0.8)" fill="#d92845" class="nc-icon-wrapper"> <path d="M16.5 9.46143L14.3884 14.3884L9.46143 16.5L14.3884 18.6116L16.5 23.5386L18.6116 18.6116L23.5386 16.5L18.6116 14.3884L16.5 9.46143Z" fill="#d92845"></path> <path d="M7.50002 0.461426L5.38844 5.38844L0.461426 7.50002L5.38844 9.61159L7.50002 14.5386L9.61159 9.61159L14.5386 7.50002L9.61159 5.38844L7.50002 0.461426Z" fill="#d92845"></path> <path d="M20.2 3.8L19 1L17.8 3.8L15 5L17.8 6.2L19 9L20.2 6.2L23 5L20.2 3.8Z" fill="#d92845" data-color="color-2"></path> <path d="M6.2 17.8L5 15L3.8 17.8L1 19L3.8 20.2L5 23L6.2 20.2L9 19L6.2 17.8Z" fill="#d92845" data-color="color-2"></path> </g></svg>