<svg xmlns="http://www.w3.org/2000/svg" height="32" width="32" viewBox="0 0 32 32"><title>32 casino chip</title><rect data-element="frame" x="0" y="0" width="32" height="32" rx="7" ry="7" stroke="none" fill="#ffffff00"></rect><g transform="translate(3.1999999999999993 3.1999999999999993) scale(0.8)" fill="#d92845" class="nc-icon-wrapper"><path d="M16,0A16,16,0,1,0,32,16,16.019,16.019,0,0,0,16,0Zm6.261,28.5-1.128-2.725a1,1,0,0,0-1.307-.541,9.93,9.93,0,0,1-7.653,0,1,1,0,0,0-1.307.541L9.738,28.5A14.074,14.074,0,0,1,3.5,22.261l2.725-1.128a1,1,0,0,0,.541-1.307,9.93,9.93,0,0,1,0-7.653,1,1,0,0,0-.541-1.307L3.5,9.738A14.074,14.074,0,0,1,9.739,3.5l1.128,2.725a1,1,0,0,0,1.307.541,9.93,9.93,0,0,1,7.653,0,1,1,0,0,0,1.307-.541L22.262,3.5A14.079,14.079,0,0,1,28.5,9.739l-2.725,1.128a1,1,0,0,0-.541,1.307,9.93,9.93,0,0,1,0,7.653,1,1,0,0,0,.541,1.307L28.5,22.262A14.079,14.079,0,0,1,22.261,28.5Z" fill="#d92845"></path><path d="M16,8a8,8,0,1,0,8,8A8,8,0,0,0,16,8Zm3.384,8.3-3.039,3.545a.454.454,0,0,1-.69,0L12.616,16.3a.455.455,0,0,1,0-.592l3.039-3.545a.454.454,0,0,1,.69,0L19.384,15.7A.455.455,0,0,1,19.384,16.3Z" fill="#d92845" data-color="color-2"></path></g></svg>