<svg xmlns="http://www.w3.org/2000/svg" height="48" width="48" viewBox="0 0 48 48"><title>48 connected dots 2</title><rect data-element="frame" x="0" y="0" width="48" height="48" rx="10" ry="10" stroke="none" fill="#ffffff00"></rect><g transform="translate(4.799999999999999 4.799999999999999) scale(0.8)" fill="#d92845" class="nc-icon-wrapper"> <path fill-rule="evenodd" clip-rule="evenodd" d="M25.5 35.5V38.5H14.9067V35.5H25.5Z" fill="#d92845" data-color="color-2"></path> <path fill-rule="evenodd" clip-rule="evenodd" d="M18.7258 12.7085L21.2993 14.2496L15.6278 24.0801L13.0293 22.5809L17.6809 14.5182L17.6238 14.4827L18.7258 12.7085Z" fill="#d92845" data-color="color-2"></path> <path fill-rule="evenodd" clip-rule="evenodd" d="M33.6609 20.601L39.3112 30.7716L36.7138 32.2718L35.442 30.1522L35.512 30.1102L31.0384 22.0579L33.6609 20.601Z" fill="#d92845" data-color="color-2"></path> <path d="M24 2C20.134 2 17 5.13401 17 9C17 12.866 20.134 16 24 16C27.866 16 31 12.866 31 9C31 5.13401 27.866 2 24 2Z" fill="#d92845"></path> <path d="M39 30C35.134 30 32 33.134 32 37C32 40.866 35.134 44 39 44C42.866 44 46 40.866 46 37C46 33.134 42.866 30 39 30Z" fill="#d92845"></path> <path d="M9 30C5.13401 30 2 33.134 2 37C2 40.866 5.13401 44 9 44C12.866 44 16 40.866 16 37C16 33.134 12.866 30 9 30Z" fill="#d92845"></path> </g></svg>